<svg xmlns="http://www.w3.org/2000/svg" width="1440" height="900" viewBox="0 0 1440 900" role="img">
  <title>Pesquisa - análise</title>
  <desc>KPIs e gráficos da pesquisa Dados fictícios, sem informação real de pacientes, profissionais ou instituição.</desc>
  <defs>
    <filter id="shadow" x="-15%" y="-15%" width="130%" height="130%"><feDropShadow dx="0" dy="18" stdDeviation="18" flood-color="#0f172a" flood-opacity=".13"/></filter>
    <style>.ui{font-family:Inter,Segoe UI,Arial,sans-serif;letter-spacing:0}</style>
  </defs>
  <rect width="1440" height="900" fill="#f4f6fb"/>
  <rect x="34" y="28" width="1372" height="824" rx="26" fill="#ffffff" filter="url(#shadow)"/>
  <rect x="34" y="28" width="1372" height="48" rx="26" fill="#f8fafc"/>
  <circle cx="72" cy="52" r="7" fill="#ef4444"/><circle cx="96" cy="52" r="7" fill="#f59e0b"/><circle cx="120" cy="52" r="7" fill="#22c55e"/>
  <rect x="174" y="42" width="412" height="20" rx="10" fill="#e2e8f0"/>
  <text x="82" y="120" class="ui" font-size="28" font-weight="850" fill="#101b2c">Análise de satisfação</text><text x="82" y="147" class="ui" font-size="13" font-weight="600" fill="#65758b">KPIs, histChart, npsDonut e setores</text><rect x="82" y="162" width="56" height="4" rx="3" fill="#2563eb" stroke="#2563eb"/><rect x="82" y="214" width="270" height="98" rx="14" fill="#eff6ff" stroke="#eff6ff"/><text x="100" y="244" class="ui" font-size="12" font-weight="800" fill="#2563eb">Aplicadas</text><text x="100" y="282" class="ui" font-size="30" font-weight="850" fill="#2563eb">416</text><text x="334" y="282" class="ui" font-size="11" font-weight="700" fill="#2563eb" text-anchor="end">mês</text><rect x="380" y="214" width="270" height="98" rx="14" fill="#ecfdf5" stroke="#ecfdf5"/><text x="398" y="244" class="ui" font-size="12" font-weight="800" fill="#15803d">Satisfação</text><text x="398" y="282" class="ui" font-size="30" font-weight="850" fill="#15803d">89%</text><text x="632" y="282" class="ui" font-size="11" font-weight="700" fill="#15803d" text-anchor="end">geral</text><rect x="678" y="214" width="270" height="98" rx="14" fill="#fff7ed" stroke="#fff7ed"/><text x="696" y="244" class="ui" font-size="12" font-weight="800" fill="#92400e">NPS</text><text x="696" y="282" class="ui" font-size="30" font-weight="850" fill="#92400e">72</text><text x="930" y="282" class="ui" font-size="11" font-weight="700" fill="#92400e" text-anchor="end">score</text><rect x="976" y="214" width="270" height="98" rx="14" fill="#f4f6fb" stroke="#f4f6fb"/><text x="994" y="244" class="ui" font-size="12" font-weight="800" fill="#4b5563">Total</text><text x="994" y="282" class="ui" font-size="30" font-weight="850" fill="#4b5563">1.2k</text><text x="1228" y="282" class="ui" font-size="11" font-weight="700" fill="#4b5563" text-anchor="end">base</text><rect x="82" y="364" width="560" height="220" rx="12" fill="#ffffff" stroke="#dce5ef"/><text x="100" y="394" class="ui" font-size="15" font-weight="800" fill="#142033">histChart</text><rect x="112" y="494" width="65" height="56" rx="5" fill="#2563eb" stroke="#2563eb" opacity="0.52"/><text x="144" y="570" class="ui" font-size="10" font-weight="700" fill="#738196" text-anchor="middle">Jan</text><rect x="195" y="459" width="65" height="91" rx="5" fill="#2563eb" stroke="#2563eb" opacity="0.59"/><text x="227" y="570" class="ui" font-size="10" font-weight="700" fill="#738196" text-anchor="middle">Fev</text><rect x="278" y="426" width="65" height="124" rx="5" fill="#2563eb" stroke="#2563eb" opacity="0.66"/><text x="310" y="570" class="ui" font-size="10" font-weight="700" fill="#738196" text-anchor="middle">Mar</text><rect x="361" y="468" width="65" height="82" rx="5" fill="#2563eb" stroke="#2563eb" opacity="0.73"/><text x="393" y="570" class="ui" font-size="10" font-weight="700" fill="#738196" text-anchor="middle">Abr</text><rect x="444" y="444" width="65" height="106" rx="5" fill="#2563eb" stroke="#2563eb" opacity="0.8"/><text x="476" y="570" class="ui" font-size="10" font-weight="700" fill="#738196" text-anchor="middle">Mai</text><rect x="527" y="408" width="65" height="142" rx="5" fill="#2563eb" stroke="#2563eb" opacity="0.87"/><text x="559" y="570" class="ui" font-size="10" font-weight="700" fill="#738196" text-anchor="middle">Jun</text><line x1="106" y1="550" x2="618" y2="550" stroke="#d6dfeb" stroke-width="1" stroke-linecap="round"/><rect x="680" y="364" width="280" height="220" rx="14" fill="#ffffff" stroke="#edf0f7"/><text x="710" y="404" class="ui" font-size="16" font-weight="850" fill="#111827">npsDonut</text><circle cx="814" cy="494" r="62" fill="none" stroke="#10b981" stroke-width="18" stroke-dasharray="280.5 109.1" stroke-dashoffset="-0.0" transform="rotate(-90 814 494)" stroke-linecap="round"/><circle cx="814" cy="494" r="62" fill="none" stroke="#f59e0b" stroke-width="18" stroke-dasharray="54.5 335.0" stroke-dashoffset="-280.5" transform="rotate(-90 814 494)" stroke-linecap="round"/><circle cx="814" cy="494" r="62" fill="none" stroke="#ef4444" stroke-width="18" stroke-dasharray="54.5 335.0" stroke-dashoffset="-335.0" transform="rotate(-90 814 494)" stroke-linecap="round"/><circle cx="814" cy="494" r="45" fill="#ffffff" stroke="none" stroke-width="1"/><text x="814" y="492" class="ui" font-size="26" font-weight="850" fill="#142033" text-anchor="middle">72</text><text x="814" y="514" class="ui" font-size="11" font-weight="800" fill="#66758a" text-anchor="middle">NPS</text><rect x="988" y="364" width="274" height="188" rx="12" fill="#ffffff" stroke="#dce5ef"/><text x="1006" y="394" class="ui" font-size="16" font-weight="800" fill="#142033">setorBody</text><rect x="1004" y="408" width="242" height="34" rx="8" fill="#f2f6fa" stroke="#f2f6fa"/><text x="1016" y="430" class="ui" font-size="11" font-weight="800" fill="#617187">Setor</text><text x="1090" y="430" class="ui" font-size="11" font-weight="800" fill="#617187">Sat.</text><text x="1164" y="430" class="ui" font-size="11" font-weight="800" fill="#617187">Status</text><line x1="1006" y1="444" x2="1244" y2="444" stroke="#e7edf4" stroke-width="1" stroke-linecap="round"/><text x="1016" y="466" class="ui" font-size="12" font-weight="600" fill="#2b3b4f">UTI</text><text x="1090" y="466" class="ui" font-size="12" font-weight="600" fill="#2b3b4f">94%</text><rect x="1164" y="446" width="58" height="26" rx="13" fill="#e6f7ef" stroke="#e6f7ef"/><text x="1193" y="464" class="ui" font-size="12" font-weight="800" fill="#13704c" text-anchor="middle">OK</text><line x1="1006" y1="486" x2="1244" y2="486" stroke="#e7edf4" stroke-width="1" stroke-linecap="round"/><text x="1016" y="508" class="ui" font-size="12" font-weight="600" fill="#2b3b4f">Clínica</text><text x="1090" y="508" class="ui" font-size="12" font-weight="600" fill="#2b3b4f">88%</text><rect x="1164" y="488" width="58" height="26" rx="13" fill="#e6f7ef" stroke="#e6f7ef"/><text x="1193" y="506" class="ui" font-size="12" font-weight="800" fill="#13704c" text-anchor="middle">OK</text><line x1="1006" y1="528" x2="1244" y2="528" stroke="#e7edf4" stroke-width="1" stroke-linecap="round"/><text x="1016" y="550" class="ui" font-size="12" font-weight="600" fill="#2b3b4f">PA</text><text x="1090" y="550" class="ui" font-size="12" font-weight="600" fill="#2b3b4f">71%</text><rect x="1164" y="530" width="58" height="26" rx="13" fill="#fff6df" stroke="#fff6df"/><text x="1193" y="548" class="ui" font-size="12" font-weight="800" fill="#9a6208" text-anchor="middle">Alerta</text><rect x="82" y="632" width="1180" height="188" rx="12" fill="#ffffff" stroke="#dce5ef"/><text x="100" y="662" class="ui" font-size="16" font-weight="800" fill="#142033">manifList</text><rect x="98" y="676" width="1148" height="34" rx="8" fill="#f2f6fa" stroke="#f2f6fa"/><text x="110" y="698" class="ui" font-size="11" font-weight="800" fill="#617187">Manifestação</text><text x="392" y="698" class="ui" font-size="11" font-weight="800" fill="#617187">Bloco</text><text x="674" y="698" class="ui" font-size="11" font-weight="800" fill="#617187">Status</text><text x="956" y="698" class="ui" font-size="11" font-weight="800" fill="#617187">Ação</text><line x1="100" y1="712" x2="1244" y2="712" stroke="#e7edf4" stroke-width="1" stroke-linecap="round"/><text x="110" y="734" class="ui" font-size="12" font-weight="600" fill="#2b3b4f">Elogio atendimento</text><text x="392" y="734" class="ui" font-size="12" font-weight="600" fill="#2b3b4f">Acolhimento</text><text x="674" y="734" class="ui" font-size="12" font-weight="600" fill="#2b3b4f">aberta</text><rect x="956" y="714" width="112" height="26" rx="13" fill="#e6f7ef" stroke="#e6f7ef"/><text x="1012" y="732" class="ui" font-size="12" font-weight="800" fill="#13704c" text-anchor="middle">toggle</text><line x1="100" y1="754" x2="1244" y2="754" stroke="#e7edf4" stroke-width="1" stroke-linecap="round"/><text x="110" y="776" class="ui" font-size="12" font-weight="600" fill="#2b3b4f">Sugestão de sinaliza…</text><text x="392" y="776" class="ui" font-size="12" font-weight="600" fill="#2b3b4f">Estrutura</text><text x="674" y="776" class="ui" font-size="12" font-weight="600" fill="#2b3b4f">tratada</text><rect x="956" y="756" width="112" height="26" rx="13" fill="#e6f7ef" stroke="#e6f7ef"/><text x="1012" y="774" class="ui" font-size="12" font-weight="800" fill="#13704c" text-anchor="middle">toggle</text><line x1="100" y1="796" x2="1244" y2="796" stroke="#e7edf4" stroke-width="1" stroke-linecap="round"/><text x="110" y="818" class="ui" font-size="12" font-weight="600" fill="#2b3b4f">Comentário assistênc…</text><text x="392" y="818" class="ui" font-size="12" font-weight="600" fill="#2b3b4f">Assistência</text><text x="674" y="818" class="ui" font-size="12" font-weight="600" fill="#2b3b4f">pendente</text><rect x="956" y="798" width="112" height="26" rx="13" fill="#e6f7ef" stroke="#e6f7ef"/><text x="1012" y="816" class="ui" font-size="12" font-weight="800" fill="#13704c" text-anchor="middle">toggle</text>
  <text x="1076" y="832" class="ui" font-size="11" fill="#8a98ab">Tela demonstrativa baseada no código do repositório - dados fictícios</text>
</svg>