<svg xmlns="http://www.w3.org/2000/svg" width="1440" height="900" viewBox="0 0 1440 900" role="img">
  <title>Pesquisa - manifestações</title>
  <desc>Manifestações e filtros Dados fictícios, sem informação real de pacientes, profissionais ou instituição.</desc>
  <defs>
    <filter id="shadow" x="-15%" y="-15%" width="130%" height="130%"><feDropShadow dx="0" dy="18" stdDeviation="18" flood-color="#0f172a" flood-opacity=".13"/></filter>
    <style>.ui{font-family:Inter,Segoe UI,Arial,sans-serif;letter-spacing:0}</style>
  </defs>
  <rect width="1440" height="900" fill="#f4f6fb"/>
  <rect x="34" y="28" width="1372" height="824" rx="26" fill="#ffffff" filter="url(#shadow)"/>
  <rect x="34" y="28" width="1372" height="48" rx="26" fill="#f8fafc"/>
  <circle cx="72" cy="52" r="7" fill="#ef4444"/><circle cx="96" cy="52" r="7" fill="#f59e0b"/><circle cx="120" cy="52" r="7" fill="#22c55e"/>
  <rect x="174" y="42" width="412" height="20" rx="10" fill="#e2e8f0"/>
  <text x="82" y="120" class="ui" font-size="28" font-weight="850" fill="#101b2c">Manifestação por bloco</text><text x="82" y="147" class="ui" font-size="13" font-weight="600" fill="#65758b">Lista, status e filtros salvos</text><rect x="82" y="162" width="56" height="4" rx="3" fill="#2563eb" stroke="#2563eb"/><rect x="82" y="220" width="1182" height="230" rx="12" fill="#ffffff" stroke="#dce5ef"/><text x="100" y="250" class="ui" font-size="16" font-weight="800" fill="#142033">renderManifestacoes</text><rect x="98" y="264" width="1150" height="34" rx="8" fill="#f2f6fa" stroke="#f2f6fa"/><text x="110" y="286" class="ui" font-size="11" font-weight="800" fill="#617187">Data</text><text x="392" y="286" class="ui" font-size="11" font-weight="800" fill="#617187">Setor</text><text x="674" y="286" class="ui" font-size="11" font-weight="800" fill="#617187">Tipo</text><text x="956" y="286" class="ui" font-size="11" font-weight="800" fill="#617187">Status</text><line x1="100" y1="300" x2="1246" y2="300" stroke="#e7edf4" stroke-width="1" stroke-linecap="round"/><text x="110" y="322" class="ui" font-size="12" font-weight="600" fill="#2b3b4f">21/06</text><text x="392" y="322" class="ui" font-size="12" font-weight="600" fill="#2b3b4f">UTI</text><text x="674" y="322" class="ui" font-size="12" font-weight="600" fill="#2b3b4f">Elogio</text><rect x="956" y="302" width="112" height="26" rx="13" fill="#e6f7ef" stroke="#e6f7ef"/><text x="1012" y="320" class="ui" font-size="12" font-weight="800" fill="#13704c" text-anchor="middle">OK</text><line x1="100" y1="342" x2="1246" y2="342" stroke="#e7edf4" stroke-width="1" stroke-linecap="round"/><text x="110" y="364" class="ui" font-size="12" font-weight="600" fill="#2b3b4f">21/06</text><text x="392" y="364" class="ui" font-size="12" font-weight="600" fill="#2b3b4f">Clínica</text><text x="674" y="364" class="ui" font-size="12" font-weight="600" fill="#2b3b4f">Sugestão</text><rect x="956" y="344" width="112" height="26" rx="13" fill="#fff6df" stroke="#fff6df"/><text x="1012" y="362" class="ui" font-size="12" font-weight="800" fill="#9a6208" text-anchor="middle">Pendente</text><line x1="100" y1="384" x2="1246" y2="384" stroke="#e7edf4" stroke-width="1" stroke-linecap="round"/><text x="110" y="406" class="ui" font-size="12" font-weight="600" fill="#2b3b4f">20/06</text><text x="392" y="406" class="ui" font-size="12" font-weight="600" fill="#2b3b4f">PA</text><text x="674" y="406" class="ui" font-size="12" font-weight="600" fill="#2b3b4f">Reclamação</text><rect x="956" y="386" width="112" height="26" rx="13" fill="#fff6df" stroke="#fff6df"/><text x="1012" y="404" class="ui" font-size="12" font-weight="800" fill="#9a6208" text-anchor="middle">Alerta</text><line x1="100" y1="426" x2="1246" y2="426" stroke="#e7edf4" stroke-width="1" stroke-linecap="round"/><text x="110" y="448" class="ui" font-size="12" font-weight="600" fill="#2b3b4f">19/06</text><text x="392" y="448" class="ui" font-size="12" font-weight="600" fill="#2b3b4f">Imagem</text><text x="674" y="448" class="ui" font-size="12" font-weight="600" fill="#2b3b4f">Comentário</text><rect x="956" y="428" width="112" height="26" rx="13" fill="#e6f7ef" stroke="#e6f7ef"/><text x="1012" y="446" class="ui" font-size="12" font-weight="800" fill="#13704c" text-anchor="middle">OK</text><rect x="82" y="530" width="560" height="210" rx="14" fill="#ffffff" stroke="#edf0f7"/><text x="112" y="570" class="ui" font-size="18" font-weight="850" fill="#111827">Filtros salvos</text><rect x="112" y="606" width="188" height="30" rx="15" fill="#eff6ff" stroke="#eff6ff"/><text x="206" y="626" class="ui" font-size="12" font-weight="800" fill="#2563eb" text-anchor="middle">getSavedFilters</text><rect x="322" y="606" width="188" height="30" rx="15" fill="#eff6ff" stroke="#eff6ff"/><text x="416" y="626" class="ui" font-size="12" font-weight="800" fill="#2563eb" text-anchor="middle">saveCurrentFilter</text><rect x="112" y="656" width="188" height="30" rx="15" fill="#eff6ff" stroke="#eff6ff"/><text x="206" y="676" class="ui" font-size="12" font-weight="800" fill="#2563eb" text-anchor="middle">loadSavedFilter</text><rect x="322" y="656" width="188" height="30" rx="15" fill="#eff6ff" stroke="#eff6ff"/><text x="416" y="676" class="ui" font-size="12" font-weight="800" fill="#2563eb" text-anchor="middle">deleteSavedFilter</text><rect x="684" y="530" width="580" height="210" rx="14" fill="#ffffff" stroke="#edf0f7"/><text x="714" y="570" class="ui" font-size="18" font-weight="850" fill="#111827">Tema e período</text><rect x="714" y="606" width="188" height="30" rx="15" fill="#f4f6fb" stroke="#f4f6fb"/><text x="808" y="626" class="ui" font-size="12" font-weight="800" fill="#4b5563" text-anchor="middle">toggleTheme</text><rect x="924" y="606" width="188" height="30" rx="15" fill="#f4f6fb" stroke="#f4f6fb"/><text x="1018" y="626" class="ui" font-size="12" font-weight="800" fill="#4b5563" text-anchor="middle">buildQuickPeriods</text><rect x="714" y="656" width="188" height="30" rx="15" fill="#f4f6fb" stroke="#f4f6fb"/><text x="808" y="676" class="ui" font-size="12" font-weight="800" fill="#4b5563" text-anchor="middle">setPeriod</text><rect x="924" y="656" width="188" height="30" rx="15" fill="#f4f6fb" stroke="#f4f6fb"/><text x="1018" y="676" class="ui" font-size="12" font-weight="800" fill="#4b5563" text-anchor="middle">onMesChange</text>
  <text x="1076" y="832" class="ui" font-size="11" fill="#8a98ab">Tela demonstrativa baseada no código do repositório - dados fictícios</text>
</svg>