<svg xmlns="http://www.w3.org/2000/svg" width="1280" height="720" viewBox="0 0 1280 720" role="img" aria-labelledby="title desc"><title id="title">Patient Satisfaction guide image</title><desc id="desc">Demo guide image with fictitious satisfaction survey data.</desc><rect width="1280" height="720" fill="#f8fafc"/><rect x="58" y="44" width="1164" height="632" rx="24" fill="#fff" stroke="#dbe4f0"/><text x="96" y="100" font-family="Inter,Arial" font-size="31" font-weight="700" fill="#0f172a">Patient Satisfaction Survey</text><text x="96" y="130" font-family="Inter,Arial" font-size="15" fill="#64748b">Imagem demonstrativa - indicadores de satisfacao ficticios</text><rect x="96" y="172" width="250" height="118" rx="16" fill="#fdf2f8" stroke="#fbcfe8"/><text x="126" y="216" font-family="Inter,Arial" font-size="16" fill="#be185d">NPS</text><text x="126" y="258" font-family="Inter,Arial" font-size="38" font-weight="700" fill="#831843">72</text><rect x="378" y="172" width="250" height="118" rx="16" fill="#ecfdf5" stroke="#a7f3d0"/><text x="408" y="216" font-family="Inter,Arial" font-size="16" fill="#047857">Satisfacao geral</text><text x="408" y="258" font-family="Inter,Arial" font-size="38" font-weight="700" fill="#064e3b">89%</text><rect x="660" y="172" width="250" height="118" rx="16" fill="#eff6ff" stroke="#bfdbfe"/><text x="690" y="216" font-family="Inter,Arial" font-size="16" fill="#1d4ed8">Respostas</text><text x="690" y="258" font-family="Inter,Arial" font-size="38" font-weight="700" fill="#1e3a8a">416</text><rect x="96" y="340" width="440" height="230" rx="18" fill="#fff" stroke="#dbe4f0"/><text x="130" y="388" font-family="Inter,Arial" font-size="20" font-weight="700" fill="#0f172a">Blocos avaliados</text><rect x="130" y="430" width="320" height="24" rx="12" fill="#bfdbfe"/><rect x="130" y="482" width="260" height="24" rx="12" fill="#a7f3d0"/><rect x="130" y="534" width="210" height="24" rx="12" fill="#fbcfe8"/><rect x="590" y="340" width="430" height="230" rx="18" fill="#fff" stroke="#dbe4f0"/><text x="624" y="388" font-family="Inter,Arial" font-size="20" font-weight="700" fill="#0f172a">Feedback por categoria</text><circle cx="704" cy="476" r="52" fill="#22c55e"/><circle cx="814" cy="476" r="42" fill="#3b82f6"/><circle cx="914" cy="476" r="34" fill="#f97316"/></svg>