<svg xmlns="http://www.w3.org/2000/svg" width="1440" height="900" viewBox="0 0 1440 900" role="img" aria-labelledby="title desc">
  <title id="title">Formulario de pesquisa</title>
  <desc id="desc">Pesquisa, NPS, blocos e exportacao Dados ficticios, sem informacao real de paciente ou instituicao.</desc>
  <defs>
    <filter id="shadow" x="-20%" y="-20%" width="140%" height="140%"><feDropShadow dx="0" dy="14" stdDeviation="18" flood-color="#0f172a" flood-opacity=".12"/></filter>
  </defs>
  <rect width="1440" height="900" fill="#eef2f7"/>
  <rect x="34" y="28" width="1372" height="820" rx="28" fill="#ffffff" filter="url(#shadow)"/>
  <rect x="34" y="28" width="1372" height="48" rx="28" fill="#f8fafc"/>
  <circle cx="72" cy="52" r="7" fill="#ef4444"/><circle cx="96" cy="52" r="7" fill="#f59e0b"/><circle cx="120" cy="52" r="7" fill="#22c55e"/>
  <rect x="174" y="42" width="410" height="20" rx="10" fill="#e2e8f0"/>
  <rect x="54" y="54" width="218" height="612" rx="22" fill="#0f172a" stroke="#0f172a"/><text x="84" y="104" font-family="Inter, Segoe UI, Arial, sans-serif" font-size="20" font-weight="800" fill="#f8fafc">Satisfacao</text><text x="84" y="130" font-family="Inter, Segoe UI, Arial, sans-serif" font-size="12" font-weight="600" fill="#94a3b8">WebApp operacional</text><text x="96" y="178" font-family="Inter, Segoe UI, Arial, sans-serif" font-size="14" font-weight="500" fill="#cbd5e1">Formulario</text><text x="96" y="232" font-family="Inter, Segoe UI, Arial, sans-serif" font-size="14" font-weight="500" fill="#cbd5e1">Analise</text><rect x="78" y="260" width="170" height="42" rx="12" fill="#1d4ed8" stroke="#1d4ed8"/><text x="96" y="286" font-family="Inter, Segoe UI, Arial, sans-serif" font-size="14" font-weight="650" fill="#ffffff">Blocos</text><text x="96" y="340" font-family="Inter, Segoe UI, Arial, sans-serif" font-size="14" font-weight="500" fill="#cbd5e1">Exportar</text><text x="96" y="394" font-family="Inter, Segoe UI, Arial, sans-serif" font-size="14" font-weight="500" fill="#cbd5e1">Migracao</text>
  <text x="310" y="108" font-family="Inter, Segoe UI, Arial, sans-serif" font-size="30" font-weight="800" fill="#0f172a">Formulario de pesquisa</text>
  <text x="310" y="132" font-family="Inter, Segoe UI, Arial, sans-serif" font-size="14" font-weight="500" fill="#64748b">Pesquisa, NPS, blocos e exportacao</text>
  <rect x="310" y="132" width="156" height="42" rx="12" fill="#f8fafc" stroke="#dbe4f0"/><text x="328" y="158" font-family="Inter, Segoe UI, Arial, sans-serif" font-size="13" font-weight="650" fill="#475569">Turno</text><rect x="486" y="132" width="156" height="42" rx="12" fill="#f8fafc" stroke="#dbe4f0"/><text x="504" y="158" font-family="Inter, Segoe UI, Arial, sans-serif" font-size="13" font-weight="650" fill="#475569">Unidade</text><rect x="662" y="132" width="156" height="42" rx="12" fill="#f8fafc" stroke="#dbe4f0"/><text x="680" y="158" font-family="Inter, Segoe UI, Arial, sans-serif" font-size="13" font-weight="650" fill="#475569">Perfil</text><rect x="838" y="132" width="156" height="42" rx="12" fill="#f8fafc" stroke="#dbe4f0"/><text x="856" y="158" font-family="Inter, Segoe UI, Arial, sans-serif" font-size="13" font-weight="650" fill="#475569">Status</text><rect x="1014" y="132" width="118" height="42" rx="12" fill="#2563eb" stroke="#2563eb"/><text x="1042" y="159" font-family="Inter, Segoe UI, Arial, sans-serif" font-size="14" font-weight="800" fill="#fff">Aplicar</text>
  <rect x="310" y="206" width="565" height="610" rx="20" fill="#ffffff" stroke="#dbe4f0"/><text x="344" y="254" font-family="Inter, Segoe UI, Arial, sans-serif" font-size="22" font-weight="800" fill="#0f172a">Formulario operacional</text><text x="344" y="292" font-family="Inter, Segoe UI, Arial, sans-serif" font-size="13" font-weight="700" fill="#64748b">Identificacao</text><rect x="344" y="304" width="466" height="44" rx="10" fill="#f8fafc" stroke="#cbd5e1"/><text x="344" y="370" font-family="Inter, Segoe UI, Arial, sans-serif" font-size="13" font-weight="700" fill="#64748b">Unidade</text><rect x="344" y="382" width="466" height="44" rx="10" fill="#f8fafc" stroke="#cbd5e1"/><text x="344" y="448" font-family="Inter, Segoe UI, Arial, sans-serif" font-size="13" font-weight="700" fill="#64748b">Responsavel</text><rect x="344" y="460" width="466" height="44" rx="10" fill="#f8fafc" stroke="#cbd5e1"/><text x="344" y="526" font-family="Inter, Segoe UI, Arial, sans-serif" font-size="13" font-weight="700" fill="#64748b">Categoria</text><rect x="344" y="538" width="466" height="44" rx="10" fill="#f8fafc" stroke="#cbd5e1"/><text x="344" y="604" font-family="Inter, Segoe UI, Arial, sans-serif" font-size="13" font-weight="700" fill="#64748b">Prioridade</text><rect x="344" y="616" width="466" height="44" rx="10" fill="#f8fafc" stroke="#cbd5e1"/><text x="344" y="682" font-family="Inter, Segoe UI, Arial, sans-serif" font-size="13" font-weight="700" fill="#64748b">Observacao</text><rect x="344" y="694" width="466" height="44" rx="10" fill="#f8fafc" stroke="#cbd5e1"/><text x="344" y="760" font-family="Inter, Segoe UI, Arial, sans-serif" font-size="13" font-weight="700" fill="#64748b">Status</text><rect x="344" y="772" width="466" height="44" rx="10" fill="#f8fafc" stroke="#cbd5e1"/><text x="344" y="838" font-family="Inter, Segoe UI, Arial, sans-serif" font-size="13" font-weight="700" fill="#64748b">Data</text><rect x="344" y="850" width="466" height="44" rx="10" fill="#f8fafc" stroke="#cbd5e1"/><rect x="344" y="750" width="180" height="48" rx="12" fill="#2563eb" stroke="#2563eb"/><text x="392" y="780" font-family="Inter, Segoe UI, Arial, sans-serif" font-size="15" font-weight="800" fill="#fff">Salvar</text><rect x="918" y="206" width="320" height="610" rx="20" fill="#fff" stroke="#dbe4f0"/><text x="948" y="254" font-family="Inter, Segoe UI, Arial, sans-serif" font-size="22" font-weight="800" fill="#0f172a">Resumo em tempo real</text><rect x="948" y="294" width="205" height="104" rx="16" fill="#ecfdf5" stroke="#ecfdf5"/><text x="970" y="326" font-family="Inter, Segoe UI, Arial, sans-serif" font-size="14" font-weight="700" fill="#047857">Validados</text><text x="970" y="364" font-family="Inter, Segoe UI, Arial, sans-serif" font-size="32" font-weight="800" fill="#047857">18</text><text x="1066" y="364" font-family="Inter, Segoe UI, Arial, sans-serif" font-size="13" font-weight="600" fill="#047857">+4</text><rect x="948" y="430" width="205" height="104" rx="16" fill="#fff7ed" stroke="#fff7ed"/><text x="970" y="462" font-family="Inter, Segoe UI, Arial, sans-serif" font-size="14" font-weight="700" fill="#c2410c">Pendentes</text><text x="970" y="500" font-family="Inter, Segoe UI, Arial, sans-serif" font-size="32" font-weight="800" fill="#c2410c">07</text><text x="1066" y="500" font-family="Inter, Segoe UI, Arial, sans-serif" font-size="13" font-weight="600" fill="#c2410c">fila</text><rect x="948" y="566" width="205" height="104" rx="16" fill="#eff6ff" stroke="#eff6ff"/><text x="970" y="598" font-family="Inter, Segoe UI, Arial, sans-serif" font-size="14" font-weight="700" fill="#1d4ed8">Logs</text><text x="970" y="636" font-family="Inter, Segoe UI, Arial, sans-serif" font-size="32" font-weight="800" fill="#1d4ed8">42</text><text x="1066" y="636" font-family="Inter, Segoe UI, Arial, sans-serif" font-size="13" font-weight="600" fill="#1d4ed8">hoje</text>
  <text x="1084" y="828" font-family="Inter, Segoe UI, Arial, sans-serif" font-size="12" fill="#94a3b8">Mockup demonstrativo - dados ficticios</text>
</svg>