<svg xmlns="http://www.w3.org/2000/svg" width="1440" height="900" viewBox="0 0 1440 900" role="img">
  <title>Pesquisa - formulário</title>
  <desc>Formulário de pesquisa de satisfação Dados fictícios, sem informação real de pacientes, profissionais ou instituição.</desc>
  <defs>
    <filter id="shadow" x="-15%" y="-15%" width="130%" height="130%"><feDropShadow dx="0" dy="18" stdDeviation="18" flood-color="#0f172a" flood-opacity=".13"/></filter>
    <style>.ui{font-family:Inter,Segoe UI,Arial,sans-serif;letter-spacing:0}</style>
  </defs>
  <rect width="1440" height="900" fill="#f4f6fb"/>
  <rect x="34" y="28" width="1372" height="824" rx="26" fill="#ffffff" filter="url(#shadow)"/>
  <rect x="34" y="28" width="1372" height="48" rx="26" fill="#f8fafc"/>
  <circle cx="72" cy="52" r="7" fill="#ef4444"/><circle cx="96" cy="52" r="7" fill="#f59e0b"/><circle cx="120" cy="52" r="7" fill="#22c55e"/>
  <rect x="174" y="42" width="412" height="20" rx="10" fill="#e2e8f0"/>
  <text x="82" y="120" class="ui" font-size="28" font-weight="850" fill="#101b2c">Pesquisa de satisfação</text><text x="82" y="147" class="ui" font-size="13" font-weight="600" fill="#65758b">Formulário com blocos de notas e ratings reais</text><rect x="82" y="162" width="56" height="4" rx="3" fill="#2563eb" stroke="#2563eb"/><rect x="82" y="214" width="1180" height="92" rx="14" fill="#ffffff" stroke="#edf0f7"/><rect x="116" y="244" width="96" height="30" rx="15" fill="#f4f6fb" stroke="#f4f6fb"/><text x="164" y="264" class="ui" font-size="12" font-weight="800" fill="#4b5563" text-anchor="middle">Hoje</text><rect x="228" y="244" width="96" height="30" rx="15" fill="#f4f6fb" stroke="#f4f6fb"/><text x="276" y="264" class="ui" font-size="12" font-weight="800" fill="#4b5563" text-anchor="middle">7 dias</text><rect x="340" y="244" width="96" height="30" rx="15" fill="#2563eb" stroke="#2563eb"/><text x="388" y="264" class="ui" font-size="12" font-weight="800" fill="#ffffff" text-anchor="middle">Mês atual</text><rect x="452" y="244" width="96" height="30" rx="15" fill="#f4f6fb" stroke="#f4f6fb"/><text x="500" y="264" class="ui" font-size="12" font-weight="800" fill="#4b5563" text-anchor="middle">Ano</text><text x="604" y="228" class="ui" font-size="11" font-weight="800" fill="#66758a">SETOR</text><rect x="604" y="236" width="174" height="44" rx="9" fill="#f7fafc" stroke="#d8e1ed"/><text x="618" y="266" class="ui" font-size="13" font-weight="600" fill="#26364a">Clínica</text><text x="804" y="228" class="ui" font-size="11" font-weight="800" fill="#66758a">ENTREVISTADOR</text><rect x="804" y="236" width="198" height="44" rx="9" fill="#f7fafc" stroke="#d8e1ed"/><text x="818" y="266" class="ui" font-size="13" font-weight="600" fill="#26364a">Equipe</text><rect x="1030" y="236" width="178" height="40" rx="10" fill="#2563eb" stroke="#2563eb"/><text x="1119" y="261" class="ui" font-size="13" font-weight="800" fill="#ffffff" text-anchor="middle">Salvar registro</text><rect x="82" y="366" width="1180" height="88" rx="14" fill="#ffffff" stroke="#edf0f7"/><text x="112" y="404" class="ui" font-size="18" font-weight="850" fill="#111827">Acolhimento</text><rect x="376" y="390" width="106" height="34" rx="17" fill="#10b981" stroke="#10b981"/><text x="429" y="412" class="ui" font-size="12" font-weight="800" fill="#ffffff" text-anchor="middle">ÓTIMO</text><rect x="504" y="390" width="106" height="34" rx="17" fill="#15803d" stroke="#15803d"/><text x="557" y="412" class="ui" font-size="12" font-weight="800" fill="#ffffff" text-anchor="middle">BOM</text><rect x="632" y="390" width="106" height="34" rx="17" fill="#f59e0b" stroke="#f59e0b"/><text x="685" y="412" class="ui" font-size="12" font-weight="800" fill="#ffffff" text-anchor="middle">REGULAR</text><rect x="760" y="390" width="106" height="34" rx="17" fill="#ef4444" stroke="#ef4444"/><text x="813" y="412" class="ui" font-size="12" font-weight="800" fill="#ffffff" text-anchor="middle">RUIM</text><rect x="888" y="390" width="106" height="34" rx="17" fill="#9ca3af" stroke="#9ca3af"/><text x="941" y="412" class="ui" font-size="12" font-weight="800" fill="#ffffff" text-anchor="middle">N/A</text><rect x="82" y="478" width="1180" height="88" rx="14" fill="#ffffff" stroke="#edf0f7"/><text x="112" y="516" class="ui" font-size="18" font-weight="850" fill="#111827">Assistência</text><rect x="376" y="502" width="106" height="34" rx="17" fill="#10b981" stroke="#10b981"/><text x="429" y="524" class="ui" font-size="12" font-weight="800" fill="#ffffff" text-anchor="middle">ÓTIMO</text><rect x="504" y="502" width="106" height="34" rx="17" fill="#15803d" stroke="#15803d"/><text x="557" y="524" class="ui" font-size="12" font-weight="800" fill="#ffffff" text-anchor="middle">BOM</text><rect x="632" y="502" width="106" height="34" rx="17" fill="#f59e0b" stroke="#f59e0b"/><text x="685" y="524" class="ui" font-size="12" font-weight="800" fill="#ffffff" text-anchor="middle">REGULAR</text><rect x="760" y="502" width="106" height="34" rx="17" fill="#ef4444" stroke="#ef4444"/><text x="813" y="524" class="ui" font-size="12" font-weight="800" fill="#ffffff" text-anchor="middle">RUIM</text><rect x="888" y="502" width="106" height="34" rx="17" fill="#9ca3af" stroke="#9ca3af"/><text x="941" y="524" class="ui" font-size="12" font-weight="800" fill="#ffffff" text-anchor="middle">N/A</text><rect x="82" y="590" width="1180" height="88" rx="14" fill="#ffffff" stroke="#edf0f7"/><text x="112" y="628" class="ui" font-size="18" font-weight="850" fill="#111827">Estrutura</text><rect x="376" y="614" width="106" height="34" rx="17" fill="#10b981" stroke="#10b981"/><text x="429" y="636" class="ui" font-size="12" font-weight="800" fill="#ffffff" text-anchor="middle">ÓTIMO</text><rect x="504" y="614" width="106" height="34" rx="17" fill="#15803d" stroke="#15803d"/><text x="557" y="636" class="ui" font-size="12" font-weight="800" fill="#ffffff" text-anchor="middle">BOM</text><rect x="632" y="614" width="106" height="34" rx="17" fill="#f59e0b" stroke="#f59e0b"/><text x="685" y="636" class="ui" font-size="12" font-weight="800" fill="#ffffff" text-anchor="middle">REGULAR</text><rect x="760" y="614" width="106" height="34" rx="17" fill="#ef4444" stroke="#ef4444"/><text x="813" y="636" class="ui" font-size="12" font-weight="800" fill="#ffffff" text-anchor="middle">RUIM</text><rect x="888" y="614" width="106" height="34" rx="17" fill="#9ca3af" stroke="#9ca3af"/><text x="941" y="636" class="ui" font-size="12" font-weight="800" fill="#ffffff" text-anchor="middle">N/A</text><rect x="82" y="710" width="1180" height="76" rx="14" fill="#ffffff" stroke="#edf0f7"/><text x="112" y="754" class="ui" font-size="17" font-weight="850" fill="#111827">Manifestação</text><text x="276" y="754" class="ui" font-size="13" font-weight="600" fill="#4b5563">Comentário fictício vinculado ao bloco e status.</text>
  <text x="1076" y="832" class="ui" font-size="11" fill="#8a98ab">Tela demonstrativa baseada no código do repositório - dados fictícios</text>
</svg>